STARTFONT 2.1
COMMENT ASCII subset (32-126) for the Omega kernel, see assets/fonts/fonts.txt
FONT -Galmuri9-Regular-R-Regular--12-12-75-75-c-80-iso10646-1
SIZE 12 75 75
FONTBOUNDINGBOX 15 17 -4 -3
STARTPROPERTIES 10
FAMILY_NAME "Galmuri9"
WEIGHT_NAME "Regular"
FONT_VERSION "2.403"
COPYRIGHT "Copyright (c) 2019–2025 Lee Minseo (quiple@quiple.dev)"
FOUNDRY "Made with Bits'n'Picas by Kreative Software"
FONT_ASCENT 11
FONT_DESCENT 1
POINT_SIZE 10
X_HEIGHT 6
CAP_HEIGHT 9
ENDPROPERTIES
CHARS 95
STARTCHAR U+0020
ENCODING 32
SWIDTH 266 0
DWIDTH 4 0
BBX 0 0 0 0
BITMAP
ENDCHAR
STARTCHAR U+0021
ENCODING 33
SWIDTH 266 0
DWIDTH 4 0
BBX 1 9 1 0
BITMAP
80
80
80
80
80
80
00
80
80
ENDCHAR
STARTCHAR U+0022
ENCODING 34
SWIDTH 266 0
DWIDTH 4 0
BBX 3 2 0 7
BITMAP
A0
A0
ENDCHAR
STARTCHAR U+0023
ENCODING 35
SWIDTH 533 0
DWIDTH 8 0
BBX 7 9 0 0
BITMAP
14
14
7E
28
28
28
FC
50
50
ENDCHAR
STARTCHAR U+0024
ENCODING 36
SWIDTH 400 0
DWIDTH 6 0
BBX 5 9 0 0
BITMAP
20
70
A8
A0
70
28
A8
70
20
ENDCHAR
STARTCHAR U+0025
ENCODING 37
SWIDTH 533 0
DWIDTH 8 0
BBX 7 9 0 0
BITMAP
44
A4
A8
48
10
24
2A
4A
44
ENDCHAR
STARTCHAR U+0026
ENCODING 38
SWIDTH 466 0
DWIDTH 7 0
BBX 6 9 0 0
BITMAP
20
50
50
50
20
54
88
88
74
ENDCHAR
STARTCHAR U+0027
ENCODING 39
SWIDTH 133 0
DWIDTH 2 0
BBX 1 2 0 7
BITMAP
80
80
ENDCHAR
STARTCHAR U+0028
ENCODING 40
SWIDTH 266 0
DWIDTH 4 0
BBX 3 9 0 0
BITMAP
20
40
40
80
80
80
40
40
20
ENDCHAR
STARTCHAR U+0029
ENCODING 41
SWIDTH 266 0
DWIDTH 4 0
BBX 3 9 0 0
BITMAP
80
40
40
20
20
20
40
40
80
ENDCHAR
STARTCHAR U+002A
ENCODING 42
SWIDTH 400 0
DWIDTH 6 0
BBX 5 7 0 1
BITMAP
20
A8
70
20
70
A8
20
ENDCHAR
STARTCHAR U+002B
ENCODING 43
SWIDTH 400 0
DWIDTH 6 0
BBX 5 5 0 2
BITMAP
20
20
F8
20
20
ENDCHAR
STARTCHAR U+002C
ENCODING 44
SWIDTH 266 0
DWIDTH 4 0
BBX 2 2 0 -1
BITMAP
40
80
ENDCHAR
STARTCHAR U+002D
ENCODING 45
SWIDTH 333 0
DWIDTH 5 0
BBX 4 1 0 4
BITMAP
F0
ENDCHAR
STARTCHAR U+002E
ENCODING 46
SWIDTH 266 0
DWIDTH 4 0
BBX 1 1 1 0
BITMAP
80
ENDCHAR
STARTCHAR U+002F
ENCODING 47
SWIDTH 266 0
DWIDTH 4 0
BBX 3 9 0 0
BITMAP
20
20
20
40
40
40
80
80
80
ENDCHAR
STARTCHAR U+0030
ENCODING 48
SWIDTH 400 0
DWIDTH 6 0
BBX 5 9 0 0
BITMAP
70
88
88
88
88
88
88
88
70
ENDCHAR
STARTCHAR U+0031
ENCODING 49
SWIDTH 266 0
DWIDTH 4 0
BBX 2 9 0 0
BITMAP
C0
40
40
40
40
40
40
40
40
ENDCHAR
STARTCHAR U+0032
ENCODING 50
SWIDTH 400 0
DWIDTH 6 0
BBX 5 9 0 0
BITMAP
F0
08
08
08
70
80
80
80
F8
ENDCHAR
STARTCHAR U+0033
ENCODING 51
SWIDTH 400 0
DWIDTH 6 0
BBX 5 9 0 0
BITMAP
F0
08
08
08
70
08
08
08
F0
ENDCHAR
STARTCHAR U+0034
ENCODING 52
SWIDTH 466 0
DWIDTH 7 0
BBX 6 9 0 0
BITMAP
88
88
88
88
88
7C
08
08
08
ENDCHAR
STARTCHAR U+0035
ENCODING 53
SWIDTH 400 0
DWIDTH 6 0
BBX 5 9 0 0
BITMAP
F8
80
80
80
F0
08
08
08
F0
ENDCHAR
STARTCHAR U+0036
ENCODING 54
SWIDTH 400 0
DWIDTH 6 0
BBX 5 9 0 0
BITMAP
70
80
80
80
F0
88
88
88
70
ENDCHAR
STARTCHAR U+0037
ENCODING 55
SWIDTH 400 0
DWIDTH 6 0
BBX 5 9 0 0
BITMAP
F8
08
08
10
20
20
20
20
20
ENDCHAR
STARTCHAR U+0038
ENCODING 56
SWIDTH 400 0
DWIDTH 6 0
BBX 5 9 0 0
BITMAP
70
88
88
88
70
88
88
88
70
ENDCHAR
STARTCHAR U+0039
ENCODING 57
SWIDTH 400 0
DWIDTH 6 0
BBX 5 9 0 0
BITMAP
70
88
88
88
78
08
08
08
70
ENDCHAR
STARTCHAR U+003A
ENCODING 58
SWIDTH 266 0
DWIDTH 4 0
BBX 1 4 1 2
BITMAP
80
00
00
80
ENDCHAR
STARTCHAR U+003B
ENCODING 59
SWIDTH 266 0
DWIDTH 4 0
BBX 2 5 0 1
BITMAP
40
00
00
40
80
ENDCHAR
STARTCHAR U+003C
ENCODING 60
SWIDTH 266 0
DWIDTH 4 0
BBX 3 5 0 2
BITMAP
20
40
80
40
20
ENDCHAR
STARTCHAR U+003D
ENCODING 61
SWIDTH 333 0
DWIDTH 5 0
BBX 4 3 0 3
BITMAP
F0
00
F0
ENDCHAR
STARTCHAR U+003E
ENCODING 62
SWIDTH 266 0
DWIDTH 4 0
BBX 3 5 0 2
BITMAP
80
40
20
40
80
ENDCHAR
STARTCHAR U+003F
ENCODING 63
SWIDTH 333 0
DWIDTH 5 0
BBX 4 9 0 0
BITMAP
E0
10
10
20
40
40
00
40
40
ENDCHAR
STARTCHAR U+0040
ENCODING 64
SWIDTH 533 0
DWIDTH 8 0
BBX 7 9 0 0
BITMAP
38
44
9A
AA
AA
AA
9C
40
3C
ENDCHAR
STARTCHAR U+0041
ENCODING 65
SWIDTH 400 0
DWIDTH 6 0
BBX 5 9 0 0
BITMAP
20
20
50
50
50
F8
88
88
88
ENDCHAR
STARTCHAR U+0042
ENCODING 66
SWIDTH 400 0
DWIDTH 6 0
BBX 5 9 0 0
BITMAP
F0
88
88
88
F0
88
88
88
F0
ENDCHAR
STARTCHAR U+0043
ENCODING 67
SWIDTH 400 0
DWIDTH 6 0
BBX 5 9 0 0
BITMAP
78
80
80
80
80
80
80
80
78
ENDCHAR
STARTCHAR U+0044
ENCODING 68
SWIDTH 400 0
DWIDTH 6 0
BBX 5 9 0 0
BITMAP
F0
88
88
88
88
88
88
88
F0
ENDCHAR
STARTCHAR U+0045
ENCODING 69
SWIDTH 333 0
DWIDTH 5 0
BBX 4 9 0 0
BITMAP
F0
80
80
80
F0
80
80
80
F0
ENDCHAR
STARTCHAR U+0046
ENCODING 70
SWIDTH 333 0
DWIDTH 5 0
BBX 4 9 0 0
BITMAP
F0
80
80
80
F0
80
80
80
80
ENDCHAR
STARTCHAR U+0047
ENCODING 71
SWIDTH 400 0
DWIDTH 6 0
BBX 5 9 0 0
BITMAP
78
80
80
80
B8
88
88
88
70
ENDCHAR
STARTCHAR U+0048
ENCODING 72
SWIDTH 400 0
DWIDTH 6 0
BBX 5 9 0 0
BITMAP
88
88
88
88
F8
88
88
88
88
ENDCHAR
STARTCHAR U+0049
ENCODING 73
SWIDTH 133 0
DWIDTH 2 0
BBX 1 9 0 0
BITMAP
80
80
80
80
80
80
80
80
80
ENDCHAR
STARTCHAR U+004A
ENCODING 74
SWIDTH 333 0
DWIDTH 5 0
BBX 4 9 0 0
BITMAP
10
10
10
10
10
10
10
10
E0
ENDCHAR
STARTCHAR U+004B
ENCODING 75
SWIDTH 400 0
DWIDTH 6 0
BBX 5 9 0 0
BITMAP
88
90
90
A0
C0
A0
90
90
88
ENDCHAR
STARTCHAR U+004C
ENCODING 76
SWIDTH 333 0
DWIDTH 5 0
BBX 4 9 0 0
BITMAP
80
80
80
80
80
80
80
80
F0
ENDCHAR
STARTCHAR U+004D
ENCODING 77
SWIDTH 400 0
DWIDTH 6 0
BBX 5 9 0 0
BITMAP
88
88
D8
D8
A8
A8
88
88
88
ENDCHAR
STARTCHAR U+004E
ENCODING 78
SWIDTH 400 0
DWIDTH 6 0
BBX 5 9 0 0
BITMAP
88
C8
C8
A8
A8
98
98
88
88
ENDCHAR
STARTCHAR U+004F
ENCODING 79
SWIDTH 400 0
DWIDTH 6 0
BBX 5 9 0 0
BITMAP
70
88
88
88
88
88
88
88
70
ENDCHAR
STARTCHAR U+0050
ENCODING 80
SWIDTH 400 0
DWIDTH 6 0
BBX 5 9 0 0
BITMAP
F0
88
88
88
F0
80
80
80
80
ENDCHAR
STARTCHAR U+0051
ENCODING 81
SWIDTH 400 0
DWIDTH 6 0
BBX 5 10 0 -1
BITMAP
70
88
88
88
88
88
88
A8
70
18
ENDCHAR
STARTCHAR U+0052
ENCODING 82
SWIDTH 400 0
DWIDTH 6 0
BBX 5 9 0 0
BITMAP
F0
88
88
88
F0
90
90
88
88
ENDCHAR
STARTCHAR U+0053
ENCODING 83
SWIDTH 333 0
DWIDTH 5 0
BBX 4 9 0 0
BITMAP
70
80
80
80
60
10
10
10
E0
ENDCHAR
STARTCHAR U+0054
ENCODING 84
SWIDTH 400 0
DWIDTH 6 0
BBX 5 9 0 0
BITMAP
F8
20
20
20
20
20
20
20
20
ENDCHAR
STARTCHAR U+0055
ENCODING 85
SWIDTH 400 0
DWIDTH 6 0
BBX 5 9 0 0
BITMAP
88
88
88
88
88
88
88
88
70
ENDCHAR
STARTCHAR U+0056
ENCODING 86
SWIDTH 400 0
DWIDTH 6 0
BBX 5 9 0 0
BITMAP
88
88
88
50
50
50
50
20
20
ENDCHAR
STARTCHAR U+0057
ENCODING 87
SWIDTH 400 0
DWIDTH 6 0
BBX 5 9 0 0
BITMAP
88
88
A8
A8
A8
A8
50
50
50
ENDCHAR
STARTCHAR U+0058
ENCODING 88
SWIDTH 400 0
DWIDTH 6 0
BBX 5 9 0 0
BITMAP
88
88
50
50
20
50
50
88
88
ENDCHAR
STARTCHAR U+0059
ENCODING 89
SWIDTH 400 0
DWIDTH 6 0
BBX 5 9 0 0
BITMAP
88
88
50
50
20
20
20
20
20
ENDCHAR
STARTCHAR U+005A
ENCODING 90
SWIDTH 333 0
DWIDTH 5 0
BBX 4 9 0 0
BITMAP
F0
10
20
20
60
40
40
80
F0
ENDCHAR
STARTCHAR U+005B
ENCODING 91
SWIDTH 266 0
DWIDTH 4 0
BBX 3 9 0 0
BITMAP
E0
80
80
80
80
80
80
80
E0
ENDCHAR
STARTCHAR U+005C
ENCODING 92
SWIDTH 266 0
DWIDTH 4 0
BBX 3 9 0 0
BITMAP
80
80
80
40
40
40
20
20
20
ENDCHAR
STARTCHAR U+005D
ENCODING 93
SWIDTH 266 0
DWIDTH 4 0
BBX 3 9 0 0
BITMAP
E0
20
20
20
20
20
20
20
E0
ENDCHAR
STARTCHAR U+005E
ENCODING 94
SWIDTH 266 0
DWIDTH 4 0
BBX 3 2 0 7
BITMAP
40
A0
ENDCHAR
STARTCHAR U+005F
ENCODING 95
SWIDTH 400 0
DWIDTH 6 0
BBX 5 1 0 0
BITMAP
F8
ENDCHAR
STARTCHAR U+0060
ENCODING 96
SWIDTH 200 0
DWIDTH 3 0
BBX 2 2 0 7
BITMAP
80
40
ENDCHAR
STARTCHAR U+0061
ENCODING 97
SWIDTH 400 0
DWIDTH 6 0
BBX 5 6 0 0
BITMAP
F0
08
78
88
88
78
ENDCHAR
STARTCHAR U+0062
ENCODING 98
SWIDTH 400 0
DWIDTH 6 0
BBX 5 9 0 0
BITMAP
80
80
80
F0
88
88
88
88
F0
ENDCHAR
STARTCHAR U+0063
ENCODING 99
SWIDTH 400 0
DWIDTH 6 0
BBX 5 6 0 0
BITMAP
78
80
80
80
80
78
ENDCHAR
STARTCHAR U+0064
ENCODING 100
SWIDTH 400 0
DWIDTH 6 0
BBX 5 9 0 0
BITMAP
08
08
08
78
88
88
88
88
78
ENDCHAR
STARTCHAR U+0065
ENCODING 101
SWIDTH 400 0
DWIDTH 6 0
BBX 5 6 0 0
BITMAP
70
88
F8
80
80
78
ENDCHAR
STARTCHAR U+0066
ENCODING 102
SWIDTH 333 0
DWIDTH 5 0
BBX 4 9 0 0
BITMAP
30
40
40
F0
40
40
40
40
40
ENDCHAR
STARTCHAR U+0067
ENCODING 103
SWIDTH 400 0
DWIDTH 6 0
BBX 5 7 0 -1
BITMAP
78
88
88
88
78
08
F0
ENDCHAR
STARTCHAR U+0068
ENCODING 104
SWIDTH 400 0
DWIDTH 6 0
BBX 5 9 0 0
BITMAP
80
80
80
F0
88
88
88
88
88
ENDCHAR
STARTCHAR U+0069
ENCODING 105
SWIDTH 133 0
DWIDTH 2 0
BBX 1 8 0 0
BITMAP
80
00
80
80
80
80
80
80
ENDCHAR
STARTCHAR U+006A
ENCODING 106
SWIDTH 266 0
DWIDTH 4 0
BBX 3 9 0 -1
BITMAP
20
00
20
20
20
20
20
20
C0
ENDCHAR
STARTCHAR U+006B
ENCODING 107
SWIDTH 333 0
DWIDTH 5 0
BBX 4 9 0 0
BITMAP
80
80
80
90
A0
C0
A0
90
90
ENDCHAR
STARTCHAR U+006C
ENCODING 108
SWIDTH 200 0
DWIDTH 3 0
BBX 2 9 0 0
BITMAP
80
80
80
80
80
80
80
80
40
ENDCHAR
STARTCHAR U+006D
ENCODING 109
SWIDTH 533 0
DWIDTH 8 0
BBX 7 6 0 0
BITMAP
FC
92
92
92
92
92
ENDCHAR
STARTCHAR U+006E
ENCODING 110
SWIDTH 400 0
DWIDTH 6 0
BBX 5 6 0 0
BITMAP
F0
88
88
88
88
88
ENDCHAR
STARTCHAR U+006F
ENCODING 111
SWIDTH 400 0
DWIDTH 6 0
BBX 5 6 0 0
BITMAP
70
88
88
88
88
70
ENDCHAR
STARTCHAR U+0070
ENCODING 112
SWIDTH 400 0
DWIDTH 6 0
BBX 5 7 0 -1
BITMAP
F0
88
88
88
F0
80
80
ENDCHAR
STARTCHAR U+0071
ENCODING 113
SWIDTH 400 0
DWIDTH 6 0
BBX 5 7 0 -1
BITMAP
78
88
88
88
78
08
08
ENDCHAR
STARTCHAR U+0072
ENCODING 114
SWIDTH 333 0
DWIDTH 5 0
BBX 4 6 0 0
BITMAP
B0
C0
80
80
80
80
ENDCHAR
STARTCHAR U+0073
ENCODING 115
SWIDTH 333 0
DWIDTH 5 0
BBX 4 6 0 0
BITMAP
70
80
60
10
10
E0
ENDCHAR
STARTCHAR U+0074
ENCODING 116
SWIDTH 333 0
DWIDTH 5 0
BBX 4 8 0 0
BITMAP
40
40
F0
40
40
40
40
30
ENDCHAR
STARTCHAR U+0075
ENCODING 117
SWIDTH 400 0
DWIDTH 6 0
BBX 5 6 0 0
BITMAP
88
88
88
88
88
78
ENDCHAR
STARTCHAR U+0076
ENCODING 118
SWIDTH 400 0
DWIDTH 6 0
BBX 5 6 0 0
BITMAP
88
88
50
50
20
20
ENDCHAR
STARTCHAR U+0077
ENCODING 119
SWIDTH 400 0
DWIDTH 6 0
BBX 5 6 0 0
BITMAP
88
A8
A8
A8
50
50
ENDCHAR
STARTCHAR U+0078
ENCODING 120
SWIDTH 400 0
DWIDTH 6 0
BBX 5 6 0 0
BITMAP
88
50
20
20
50
88
ENDCHAR
STARTCHAR U+0079
ENCODING 121
SWIDTH 400 0
DWIDTH 6 0
BBX 5 7 0 -1
BITMAP
88
88
50
50
20
20
C0
ENDCHAR
STARTCHAR U+007A
ENCODING 122
SWIDTH 400 0
DWIDTH 6 0
BBX 5 6 0 0
BITMAP
F8
10
20
40
80
F8
ENDCHAR
STARTCHAR U+007B
ENCODING 123
SWIDTH 333 0
DWIDTH 5 0
BBX 4 9 0 0
BITMAP
30
40
40
40
80
40
40
40
30
ENDCHAR
STARTCHAR U+007C
ENCODING 124
SWIDTH 266 0
DWIDTH 4 0
BBX 1 9 1 0
BITMAP
80
80
80
80
80
80
80
80
80
ENDCHAR
STARTCHAR U+007D
ENCODING 125
SWIDTH 333 0
DWIDTH 5 0
BBX 4 9 0 0
BITMAP
C0
20
20
20
10
20
20
20
C0
ENDCHAR
STARTCHAR U+007E
ENCODING 126
SWIDTH 533 0
DWIDTH 8 0
BBX 7 2 0 4
BITMAP
72
8C
ENDCHAR
ENDFONT
