STARTFONT 2.1
COMMENT ASCII subset (32-126) for the Omega kernel, see assets/fonts/fonts.txt
FONT -Galmuri11-Bold-R-Bold--16-16-75-75-c-80-iso10646-1
SIZE 16 75 75
FONTBOUNDINGBOX 18 17 0 -3
STARTPROPERTIES 10
FAMILY_NAME "Galmuri11"
WEIGHT_NAME "Bold"
FONT_VERSION "2.403"
COPYRIGHT "Copyright (c) 2019–2025 Lee Minseo (quiple@quiple.dev)"
FOUNDRY "Made with Bits'n'Picas by Kreative Software"
FONT_ASCENT 14
FONT_DESCENT 2
POINT_SIZE 12
X_HEIGHT 8
CAP_HEIGHT 11
ENDPROPERTIES
CHARS 95
STARTCHAR U+0020
ENCODING 32
SWIDTH 277 0
DWIDTH 5 0
BBX 0 0 0 0
BITMAP
ENDCHAR
STARTCHAR U+0021
ENCODING 33
SWIDTH 277 0
DWIDTH 5 0
BBX 2 11 1 0
BITMAP
C0
C0
C0
C0
C0
C0
C0
C0
00
C0
C0
ENDCHAR
STARTCHAR U+0022
ENCODING 34
SWIDTH 333 0
DWIDTH 6 0
BBX 5 4 0 7
BITMAP
D8
D8
D8
D8
ENDCHAR
STARTCHAR U+0023
ENCODING 35
SWIDTH 555 0
DWIDTH 10 0
BBX 9 11 0 0
BITMAP
1B00
1B00
7F80
7F80
3600
3600
FF00
FF00
6C00
6C00
6C00
ENDCHAR
STARTCHAR U+0024
ENCODING 36
SWIDTH 500 0
DWIDTH 9 0
BBX 8 11 0 0
BITMAP
18
7E
FF
DB
F8
7E
1F
DB
FF
7E
18
ENDCHAR
STARTCHAR U+0025
ENCODING 37
SWIDTH 666 0
DWIDTH 12 0
BBX 11 11 0 0
BITMAP
7000
F8C0
D9C0
FB80
7700
0E00
1DC0
3BE0
7360
63E0
01C0
ENDCHAR
STARTCHAR U+0026
ENCODING 38
SWIDTH 611 0
DWIDTH 11 0
BBX 10 11 0 0
BITMAP
3C00
7E00
6600
6600
7E00
3C00
7EC0
E7C0
C380
FFC0
7EC0
ENDCHAR
STARTCHAR U+0027
ENCODING 39
SWIDTH 277 0
DWIDTH 5 0
BBX 2 4 1 7
BITMAP
C0
C0
C0
C0
ENDCHAR
STARTCHAR U+0028
ENCODING 40
SWIDTH 277 0
DWIDTH 5 0
BBX 4 11 0 0
BITMAP
30
70
60
E0
C0
C0
C0
E0
60
70
30
ENDCHAR
STARTCHAR U+0029
ENCODING 41
SWIDTH 277 0
DWIDTH 5 0
BBX 4 11 0 0
BITMAP
C0
E0
60
70
30
30
30
70
60
E0
C0
ENDCHAR
STARTCHAR U+002A
ENCODING 42
SWIDTH 388 0
DWIDTH 7 0
BBX 6 7 0 1
BITMAP
30
B4
FC
78
FC
B4
30
ENDCHAR
STARTCHAR U+002B
ENCODING 43
SWIDTH 500 0
DWIDTH 9 0
BBX 8 8 0 1
BITMAP
18
18
18
FF
FF
18
18
18
ENDCHAR
STARTCHAR U+002C
ENCODING 44
SWIDTH 277 0
DWIDTH 5 0
BBX 2 4 1 -2
BITMAP
C0
C0
40
80
ENDCHAR
STARTCHAR U+002D
ENCODING 45
SWIDTH 333 0
DWIDTH 6 0
BBX 5 2 0 4
BITMAP
F8
F8
ENDCHAR
STARTCHAR U+002E
ENCODING 46
SWIDTH 277 0
DWIDTH 5 0
BBX 2 2 1 0
BITMAP
C0
C0
ENDCHAR
STARTCHAR U+002F
ENCODING 47
SWIDTH 388 0
DWIDTH 7 0
BBX 6 11 0 0
BITMAP
0C
0C
1C
18
38
30
70
60
E0
C0
C0
ENDCHAR
STARTCHAR U+0030
ENCODING 48
SWIDTH 444 0
DWIDTH 8 0
BBX 7 11 0 0
BITMAP
7C
FE
C6
C6
C6
C6
C6
C6
C6
FE
7C
ENDCHAR
STARTCHAR U+0031
ENCODING 49
SWIDTH 277 0
DWIDTH 5 0
BBX 3 11 0 0
BITMAP
60
E0
E0
60
60
60
60
60
60
60
60
ENDCHAR
STARTCHAR U+0032
ENCODING 50
SWIDTH 444 0
DWIDTH 8 0
BBX 7 11 0 0
BITMAP
7C
FE
C6
C6
0E
1C
38
70
E0
FE
FE
ENDCHAR
STARTCHAR U+0033
ENCODING 51
SWIDTH 444 0
DWIDTH 8 0
BBX 7 11 0 0
BITMAP
7C
FE
C6
06
3E
3C
06
06
C6
FE
7C
ENDCHAR
STARTCHAR U+0034
ENCODING 52
SWIDTH 444 0
DWIDTH 8 0
BBX 7 11 0 0
BITMAP
1C
3C
3C
6C
6C
CC
CC
FE
FE
0C
0C
ENDCHAR
STARTCHAR U+0035
ENCODING 53
SWIDTH 444 0
DWIDTH 8 0
BBX 7 11 0 0
BITMAP
FE
FE
C0
C0
FC
FE
C6
06
C6
FE
7C
ENDCHAR
STARTCHAR U+0036
ENCODING 54
SWIDTH 444 0
DWIDTH 8 0
BBX 7 11 0 0
BITMAP
7C
FE
C6
C0
FC
FE
C6
C6
C6
FE
7C
ENDCHAR
STARTCHAR U+0037
ENCODING 55
SWIDTH 444 0
DWIDTH 8 0
BBX 7 11 0 0
BITMAP
FE
FE
06
0E
0C
1C
18
38
30
30
30
ENDCHAR
STARTCHAR U+0038
ENCODING 56
SWIDTH 444 0
DWIDTH 8 0
BBX 7 11 0 0
BITMAP
7C
FE
C6
C6
FE
7C
C6
C6
C6
FE
7C
ENDCHAR
STARTCHAR U+0039
ENCODING 57
SWIDTH 444 0
DWIDTH 8 0
BBX 7 11 0 0
BITMAP
7C
FE
C6
C6
C6
FE
7E
06
C6
FE
7C
ENDCHAR
STARTCHAR U+003A
ENCODING 58
SWIDTH 277 0
DWIDTH 5 0
BBX 2 6 1 2
BITMAP
C0
C0
00
00
C0
C0
ENDCHAR
STARTCHAR U+003B
ENCODING 59
SWIDTH 277 0
DWIDTH 5 0
BBX 2 8 1 0
BITMAP
C0
C0
00
00
C0
C0
40
80
ENDCHAR
STARTCHAR U+003C
ENCODING 60
SWIDTH 388 0
DWIDTH 7 0
BBX 6 9 0 0
BITMAP
0C
1C
38
70
E0
70
38
1C
0C
ENDCHAR
STARTCHAR U+003D
ENCODING 61
SWIDTH 333 0
DWIDTH 6 0
BBX 5 5 0 2
BITMAP
F8
F8
00
F8
F8
ENDCHAR
STARTCHAR U+003E
ENCODING 62
SWIDTH 388 0
DWIDTH 7 0
BBX 6 9 0 0
BITMAP
C0
E0
70
38
1C
38
70
E0
C0
ENDCHAR
STARTCHAR U+003F
ENCODING 63
SWIDTH 388 0
DWIDTH 7 0
BBX 6 11 0 0
BITMAP
78
FC
CC
CC
1C
38
30
30
00
30
30
ENDCHAR
STARTCHAR U+0040
ENCODING 64
SWIDTH 500 0
DWIDTH 9 0
BBX 8 11 0 0
BITMAP
3E
7F
E3
CF
DF
DB
DF
CF
E0
7E
3E
ENDCHAR
STARTCHAR U+0041
ENCODING 65
SWIDTH 500 0
DWIDTH 9 0
BBX 8 11 0 0
BITMAP
18
18
3C
3C
3C
66
66
7E
FF
C3
C3
ENDCHAR
STARTCHAR U+0042
ENCODING 66
SWIDTH 444 0
DWIDTH 8 0
BBX 7 11 0 0
BITMAP
FC
FE
C6
C6
FE
FC
C6
C6
C6
FE
FC
ENDCHAR
STARTCHAR U+0043
ENCODING 67
SWIDTH 444 0
DWIDTH 8 0
BBX 7 11 0 0
BITMAP
7C
FE
C6
C0
C0
C0
C0
C0
C6
FE
7C
ENDCHAR
STARTCHAR U+0044
ENCODING 68
SWIDTH 444 0
DWIDTH 8 0
BBX 7 11 0 0
BITMAP
FC
FE
C6
C6
C6
C6
C6
C6
C6
FE
FC
ENDCHAR
STARTCHAR U+0045
ENCODING 69
SWIDTH 388 0
DWIDTH 7 0
BBX 6 11 0 0
BITMAP
FC
FC
C0
C0
FC
FC
C0
C0
C0
FC
FC
ENDCHAR
STARTCHAR U+0046
ENCODING 70
SWIDTH 388 0
DWIDTH 7 0
BBX 6 11 0 0
BITMAP
FC
FC
C0
C0
FC
FC
C0
C0
C0
C0
C0
ENDCHAR
STARTCHAR U+0047
ENCODING 71
SWIDTH 444 0
DWIDTH 8 0
BBX 7 11 0 0
BITMAP
7C
FE
C6
C0
DE
DE
C6
C6
C6
FE
7C
ENDCHAR
STARTCHAR U+0048
ENCODING 72
SWIDTH 444 0
DWIDTH 8 0
BBX 7 11 0 0
BITMAP
C6
C6
C6
C6
FE
FE
C6
C6
C6
C6
C6
ENDCHAR
STARTCHAR U+0049
ENCODING 73
SWIDTH 277 0
DWIDTH 5 0
BBX 4 11 0 0
BITMAP
F0
F0
60
60
60
60
60
60
60
F0
F0
ENDCHAR
STARTCHAR U+004A
ENCODING 74
SWIDTH 444 0
DWIDTH 8 0
BBX 7 11 0 0
BITMAP
06
06
06
06
06
06
06
C6
C6
FE
7C
ENDCHAR
STARTCHAR U+004B
ENCODING 75
SWIDTH 500 0
DWIDTH 9 0
BBX 8 11 0 0
BITMAP
C3
C7
CE
DC
F8
F0
F8
DC
CE
C7
C3
ENDCHAR
STARTCHAR U+004C
ENCODING 76
SWIDTH 388 0
DWIDTH 7 0
BBX 6 11 0 0
BITMAP
C0
C0
C0
C0
C0
C0
C0
C0
C0
FC
FC
ENDCHAR
STARTCHAR U+004D
ENCODING 77
SWIDTH 555 0
DWIDTH 10 0
BBX 9 11 0 0
BITMAP
C180
C180
E380
E380
F780
F780
FF80
DD80
DD80
C980
C980
ENDCHAR
STARTCHAR U+004E
ENCODING 78
SWIDTH 444 0
DWIDTH 8 0
BBX 7 11 0 0
BITMAP
C6
E6
E6
F6
F6
FE
DE
DE
CE
CE
C6
ENDCHAR
STARTCHAR U+004F
ENCODING 79
SWIDTH 444 0
DWIDTH 8 0
BBX 7 11 0 0
BITMAP
7C
FE
C6
C6
C6
C6
C6
C6
C6
FE
7C
ENDCHAR
STARTCHAR U+0050
ENCODING 80
SWIDTH 444 0
DWIDTH 8 0
BBX 7 11 0 0
BITMAP
FC
FE
C6
C6
C6
FE
FC
C0
C0
C0
C0
ENDCHAR
STARTCHAR U+0051
ENCODING 81
SWIDTH 444 0
DWIDTH 8 0
BBX 7 11 0 0
BITMAP
7C
FE
C6
C6
C6
C6
C6
DE
DC
FE
76
ENDCHAR
STARTCHAR U+0052
ENCODING 82
SWIDTH 444 0
DWIDTH 8 0
BBX 7 11 0 0
BITMAP
FC
FE
C6
C6
C6
FE
FC
CC
CE
C6
C6
ENDCHAR
STARTCHAR U+0053
ENCODING 83
SWIDTH 444 0
DWIDTH 8 0
BBX 7 11 0 0
BITMAP
7C
FE
C6
C0
F0
7C
1E
06
C6
FE
7C
ENDCHAR
STARTCHAR U+0054
ENCODING 84
SWIDTH 500 0
DWIDTH 9 0
BBX 8 11 0 0
BITMAP
FF
FF
18
18
18
18
18
18
18
18
18
ENDCHAR
STARTCHAR U+0055
ENCODING 85
SWIDTH 444 0
DWIDTH 8 0
BBX 7 11 0 0
BITMAP
C6
C6
C6
C6
C6
C6
C6
C6
C6
FE
7C
ENDCHAR
STARTCHAR U+0056
ENCODING 86
SWIDTH 500 0
DWIDTH 9 0
BBX 8 11 0 0
BITMAP
C3
C3
E7
66
66
7E
3C
3C
3C
18
18
ENDCHAR
STARTCHAR U+0057
ENCODING 87
SWIDTH 722 0
DWIDTH 13 0
BBX 12 11 0 0
BITMAP
C630
C630
C630
EF70
6F60
6F60
7FE0
79E0
39C0
30C0
30C0
ENDCHAR
STARTCHAR U+0058
ENCODING 88
SWIDTH 444 0
DWIDTH 8 0
BBX 7 11 0 0
BITMAP
C6
C6
EE
6C
7C
38
7C
6C
EE
C6
C6
ENDCHAR
STARTCHAR U+0059
ENCODING 89
SWIDTH 500 0
DWIDTH 9 0
BBX 8 11 0 0
BITMAP
C3
C3
E7
66
7E
3C
18
18
18
18
18
ENDCHAR
STARTCHAR U+005A
ENCODING 90
SWIDTH 444 0
DWIDTH 8 0
BBX 7 11 0 0
BITMAP
FE
FE
06
0E
1C
38
70
E0
C0
FE
FE
ENDCHAR
STARTCHAR U+005B
ENCODING 91
SWIDTH 277 0
DWIDTH 5 0
BBX 4 11 0 0
BITMAP
F0
F0
C0
C0
C0
C0
C0
C0
C0
F0
F0
ENDCHAR
STARTCHAR U+005C
ENCODING 92
SWIDTH 388 0
DWIDTH 7 0
BBX 6 11 0 0
BITMAP
C0
C0
E0
60
70
30
38
18
1C
0C
0C
ENDCHAR
STARTCHAR U+005D
ENCODING 93
SWIDTH 277 0
DWIDTH 5 0
BBX 4 11 0 0
BITMAP
F0
F0
30
30
30
30
30
30
30
F0
F0
ENDCHAR
STARTCHAR U+005E
ENCODING 94
SWIDTH 333 0
DWIDTH 6 0
BBX 5 4 0 7
BITMAP
20
70
F8
D8
ENDCHAR
STARTCHAR U+005F
ENCODING 95
SWIDTH 444 0
DWIDTH 8 0
BBX 7 2 0 0
BITMAP
FE
FE
ENDCHAR
STARTCHAR U+0060
ENCODING 96
SWIDTH 277 0
DWIDTH 5 0
BBX 4 4 0 7
BITMAP
C0
E0
70
30
ENDCHAR
STARTCHAR U+0061
ENCODING 97
SWIDTH 388 0
DWIDTH 7 0
BBX 6 8 0 0
BITMAP
F8
FC
0C
7C
FC
CC
FC
7C
ENDCHAR
STARTCHAR U+0062
ENCODING 98
SWIDTH 444 0
DWIDTH 8 0
BBX 7 11 0 0
BITMAP
C0
C0
C0
DC
FE
E6
C6
C6
E6
FE
DC
ENDCHAR
STARTCHAR U+0063
ENCODING 99
SWIDTH 444 0
DWIDTH 8 0
BBX 7 8 0 0
BITMAP
7C
FE
C6
C0
C0
C6
FE
7C
ENDCHAR
STARTCHAR U+0064
ENCODING 100
SWIDTH 444 0
DWIDTH 8 0
BBX 7 11 0 0
BITMAP
06
06
06
76
FE
CE
C6
C6
CE
FE
76
ENDCHAR
STARTCHAR U+0065
ENCODING 101
SWIDTH 444 0
DWIDTH 8 0
BBX 7 8 0 0
BITMAP
7C
FE
C6
FE
FE
C0
FE
7E
ENDCHAR
STARTCHAR U+0066
ENCODING 102
SWIDTH 333 0
DWIDTH 6 0
BBX 5 11 0 0
BITMAP
38
78
60
F8
F8
60
60
60
60
60
60
ENDCHAR
STARTCHAR U+0067
ENCODING 103
SWIDTH 444 0
DWIDTH 8 0
BBX 7 10 0 -2
BITMAP
76
FE
CE
C6
CE
FE
76
06
7E
7C
ENDCHAR
STARTCHAR U+0068
ENCODING 104
SWIDTH 444 0
DWIDTH 8 0
BBX 7 11 0 0
BITMAP
C0
C0
C0
DC
FE
E6
C6
C6
C6
C6
C6
ENDCHAR
STARTCHAR U+0069
ENCODING 105
SWIDTH 166 0
DWIDTH 3 0
BBX 2 11 0 0
BITMAP
C0
C0
00
C0
C0
C0
C0
C0
C0
C0
C0
ENDCHAR
STARTCHAR U+006A
ENCODING 106
SWIDTH 277 0
DWIDTH 5 0
BBX 4 13 0 -2
BITMAP
30
30
00
30
30
30
30
30
30
30
30
F0
E0
ENDCHAR
STARTCHAR U+006B
ENCODING 107
SWIDTH 444 0
DWIDTH 8 0
BBX 7 11 0 0
BITMAP
C0
C0
C0
C6
CE
DC
F8
F8
DC
CE
C6
ENDCHAR
STARTCHAR U+006C
ENCODING 108
SWIDTH 166 0
DWIDTH 3 0
BBX 2 11 0 0
BITMAP
C0
C0
C0
C0
C0
C0
C0
C0
C0
C0
C0
ENDCHAR
STARTCHAR U+006D
ENCODING 109
SWIDTH 611 0
DWIDTH 11 0
BBX 10 8 0 0
BITMAP
D980
FFC0
EEC0
CCC0
CCC0
CCC0
CCC0
CCC0
ENDCHAR
STARTCHAR U+006E
ENCODING 110
SWIDTH 444 0
DWIDTH 8 0
BBX 7 8 0 0
BITMAP
DC
FE
E6
C6
C6
C6
C6
C6
ENDCHAR
STARTCHAR U+006F
ENCODING 111
SWIDTH 444 0
DWIDTH 8 0
BBX 7 8 0 0
BITMAP
7C
FE
C6
C6
C6
C6
FE
7C
ENDCHAR
STARTCHAR U+0070
ENCODING 112
SWIDTH 444 0
DWIDTH 8 0
BBX 7 10 0 -2
BITMAP
DC
FE
E6
C6
C6
E6
FE
DC
C0
C0
ENDCHAR
STARTCHAR U+0071
ENCODING 113
SWIDTH 444 0
DWIDTH 8 0
BBX 7 10 0 -2
BITMAP
76
FE
CE
C6
C6
CE
FE
76
06
06
ENDCHAR
STARTCHAR U+0072
ENCODING 114
SWIDTH 333 0
DWIDTH 6 0
BBX 5 8 0 0
BITMAP
D8
F8
E0
C0
C0
C0
C0
C0
ENDCHAR
STARTCHAR U+0073
ENCODING 115
SWIDTH 388 0
DWIDTH 7 0
BBX 6 8 0 0
BITMAP
7C
FC
C0
F8
7C
0C
FC
F8
ENDCHAR
STARTCHAR U+0074
ENCODING 116
SWIDTH 333 0
DWIDTH 6 0
BBX 5 10 0 0
BITMAP
60
60
F8
F8
60
60
60
60
78
38
ENDCHAR
STARTCHAR U+0075
ENCODING 117
SWIDTH 444 0
DWIDTH 8 0
BBX 7 8 0 0
BITMAP
C6
C6
C6
C6
C6
CE
FE
76
ENDCHAR
STARTCHAR U+0076
ENCODING 118
SWIDTH 444 0
DWIDTH 8 0
BBX 7 8 0 0
BITMAP
C6
C6
EE
6C
7C
38
38
10
ENDCHAR
STARTCHAR U+0077
ENCODING 119
SWIDTH 611 0
DWIDTH 11 0
BBX 10 8 0 0
BITMAP
CCC0
CCC0
EDC0
6D80
7F80
7F80
3300
3300
ENDCHAR
STARTCHAR U+0078
ENCODING 120
SWIDTH 444 0
DWIDTH 8 0
BBX 7 8 0 0
BITMAP
C6
EE
7C
38
38
7C
EE
C6
ENDCHAR
STARTCHAR U+0079
ENCODING 121
SWIDTH 444 0
DWIDTH 8 0
BBX 7 10 0 -2
BITMAP
C6
C6
EE
6C
7C
3C
38
38
F0
E0
ENDCHAR
STARTCHAR U+007A
ENCODING 122
SWIDTH 388 0
DWIDTH 7 0
BBX 6 8 0 0
BITMAP
FC
FC
1C
38
70
E0
FC
FC
ENDCHAR
STARTCHAR U+007B
ENCODING 123
SWIDTH 333 0
DWIDTH 6 0
BBX 5 11 0 0
BITMAP
38
78
60
60
60
C0
60
60
60
78
38
ENDCHAR
STARTCHAR U+007C
ENCODING 124
SWIDTH 277 0
DWIDTH 5 0
BBX 2 11 1 0
BITMAP
C0
C0
C0
C0
C0
C0
C0
C0
C0
C0
C0
ENDCHAR
STARTCHAR U+007D
ENCODING 125
SWIDTH 333 0
DWIDTH 6 0
BBX 5 11 0 0
BITMAP
E0
F0
30
30
30
18
30
30
30
F0
E0
ENDCHAR
STARTCHAR U+007E
ENCODING 126
SWIDTH 555 0
DWIDTH 10 0
BBX 9 3 0 4
BITMAP
7980
FF80
CF00
ENDCHAR
ENDFONT
