STARTFONT 2.1
COMMENT ASCII subset (32-126) for the Omega kernel, see assets/fonts/fonts.txt
FONT -Galmuri11-Regular-R-Regular--16-16-75-75-c-80-iso10646-1
SIZE 16 75 75
FONTBOUNDINGBOX 18 21 -4 -4
STARTPROPERTIES 10
FAMILY_NAME "Galmuri11"
WEIGHT_NAME "Regular"
FONT_VERSION "2.403"
COPYRIGHT "Copyright (c) 2019–2025 Lee Minseo (quiple@quiple.dev)"
FOUNDRY "Made with Bits'n'Picas by Kreative Software"
FONT_ASCENT 14
FONT_DESCENT 2
POINT_SIZE 12
X_HEIGHT 8
CAP_HEIGHT 11
ENDPROPERTIES
CHARS 95
STARTCHAR U+0020
ENCODING 32
SWIDTH 277 0
DWIDTH 5 0
BBX 0 0 0 0
BITMAP
ENDCHAR
STARTCHAR U+0021
ENCODING 33
SWIDTH 222 0
DWIDTH 4 0
BBX 1 11 1 0
BITMAP
80
80
80
80
80
80
80
80
00
80
80
ENDCHAR
STARTCHAR U+0022
ENCODING 34
SWIDTH 222 0
DWIDTH 4 0
BBX 3 3 0 8
BITMAP
A0
A0
A0
ENDCHAR
STARTCHAR U+0023
ENCODING 35
SWIDTH 444 0
DWIDTH 8 0
BBX 7 11 0 0
BITMAP
14
14
14
7E
28
28
28
FC
50
50
50
ENDCHAR
STARTCHAR U+0024
ENCODING 36
SWIDTH 444 0
DWIDTH 8 0
BBX 7 11 0 0
BITMAP
10
7C
92
90
90
7C
12
12
92
7C
10
ENDCHAR
STARTCHAR U+0025
ENCODING 37
SWIDTH 555 0
DWIDTH 10 0
BBX 9 9 0 1
BITMAP
6080
9100
9200
6400
0800
1300
2480
4480
8300
ENDCHAR
STARTCHAR U+0026
ENCODING 38
SWIDTH 444 0
DWIDTH 8 0
BBX 7 11 0 0
BITMAP
30
48
48
48
50
20
50
8A
84
4A
30
ENDCHAR
STARTCHAR U+0027
ENCODING 39
SWIDTH 222 0
DWIDTH 4 0
BBX 1 3 1 8
BITMAP
80
80
80
ENDCHAR
STARTCHAR U+0028
ENCODING 40
SWIDTH 222 0
DWIDTH 4 0
BBX 3 11 0 0
BITMAP
20
40
40
80
80
80
80
80
40
40
20
ENDCHAR
STARTCHAR U+0029
ENCODING 41
SWIDTH 222 0
DWIDTH 4 0
BBX 3 11 0 0
BITMAP
80
40
40
20
20
20
20
20
40
40
80
ENDCHAR
STARTCHAR U+002A
ENCODING 42
SWIDTH 333 0
DWIDTH 6 0
BBX 5 7 0 2
BITMAP
20
A8
70
20
70
A8
20
ENDCHAR
STARTCHAR U+002B
ENCODING 43
SWIDTH 444 0
DWIDTH 8 0
BBX 7 7 0 2
BITMAP
10
10
10
FE
10
10
10
ENDCHAR
STARTCHAR U+002C
ENCODING 44
SWIDTH 222 0
DWIDTH 4 0
BBX 2 2 0 -1
BITMAP
40
80
ENDCHAR
STARTCHAR U+002D
ENCODING 45
SWIDTH 333 0
DWIDTH 6 0
BBX 5 1 0 5
BITMAP
F8
ENDCHAR
STARTCHAR U+002E
ENCODING 46
SWIDTH 222 0
DWIDTH 4 0
BBX 1 1 1 0
BITMAP
80
ENDCHAR
STARTCHAR U+002F
ENCODING 47
SWIDTH 333 0
DWIDTH 6 0
BBX 5 11 0 0
BITMAP
08
08
10
10
20
20
20
40
40
80
80
ENDCHAR
STARTCHAR U+0030
ENCODING 48
SWIDTH 444 0
DWIDTH 8 0
BBX 7 11 0 0
BITMAP
38
44
82
82
82
82
82
82
82
44
38
ENDCHAR
STARTCHAR U+0031
ENCODING 49
SWIDTH 333 0
DWIDTH 6 0
BBX 3 11 1 0
BITMAP
40
C0
40
40
40
40
40
40
40
40
E0
ENDCHAR
STARTCHAR U+0032
ENCODING 50
SWIDTH 444 0
DWIDTH 8 0
BBX 7 11 0 0
BITMAP
38
44
82
02
04
18
20
40
80
80
FE
ENDCHAR
STARTCHAR U+0033
ENCODING 51
SWIDTH 444 0
DWIDTH 8 0
BBX 7 11 0 0
BITMAP
38
44
82
02
04
38
04
02
82
44
38
ENDCHAR
STARTCHAR U+0034
ENCODING 52
SWIDTH 444 0
DWIDTH 8 0
BBX 7 11 0 0
BITMAP
0C
14
14
24
24
44
44
84
FE
04
04
ENDCHAR
STARTCHAR U+0035
ENCODING 53
SWIDTH 444 0
DWIDTH 8 0
BBX 7 11 0 0
BITMAP
FE
80
80
80
B8
C4
02
02
82
44
38
ENDCHAR
STARTCHAR U+0036
ENCODING 54
SWIDTH 444 0
DWIDTH 8 0
BBX 7 11 0 0
BITMAP
18
20
40
40
B8
C4
82
82
82
44
38
ENDCHAR
STARTCHAR U+0037
ENCODING 55
SWIDTH 444 0
DWIDTH 8 0
BBX 7 11 0 0
BITMAP
FE
02
02
04
04
08
08
10
10
20
20
ENDCHAR
STARTCHAR U+0038
ENCODING 56
SWIDTH 444 0
DWIDTH 8 0
BBX 7 11 0 0
BITMAP
38
44
82
82
44
38
44
82
82
44
38
ENDCHAR
STARTCHAR U+0039
ENCODING 57
SWIDTH 444 0
DWIDTH 8 0
BBX 7 11 0 0
BITMAP
38
44
82
82
82
46
3A
04
04
08
30
ENDCHAR
STARTCHAR U+003A
ENCODING 58
SWIDTH 222 0
DWIDTH 4 0
BBX 1 6 1 2
BITMAP
80
80
00
00
80
80
ENDCHAR
STARTCHAR U+003B
ENCODING 59
SWIDTH 222 0
DWIDTH 4 0
BBX 2 6 0 2
BITMAP
40
40
00
00
40
80
ENDCHAR
STARTCHAR U+003C
ENCODING 60
SWIDTH 277 0
DWIDTH 5 0
BBX 4 7 0 2
BITMAP
10
20
40
80
40
20
10
ENDCHAR
STARTCHAR U+003D
ENCODING 61
SWIDTH 333 0
DWIDTH 6 0
BBX 5 4 0 3
BITMAP
F8
00
00
F8
ENDCHAR
STARTCHAR U+003E
ENCODING 62
SWIDTH 277 0
DWIDTH 5 0
BBX 4 7 0 2
BITMAP
80
40
20
10
20
40
80
ENDCHAR
STARTCHAR U+003F
ENCODING 63
SWIDTH 333 0
DWIDTH 6 0
BBX 5 11 0 0
BITMAP
70
88
88
08
10
20
20
20
00
20
20
ENDCHAR
STARTCHAR U+0040
ENCODING 64
SWIDTH 555 0
DWIDTH 10 0
BBX 9 9 0 1
BITMAP
3E00
4100
9C80
A480
A480
AD00
9600
4000
3F00
ENDCHAR
STARTCHAR U+0041
ENCODING 65
SWIDTH 444 0
DWIDTH 8 0
BBX 7 11 0 0
BITMAP
10
28
28
28
44
44
44
7C
82
82
82
ENDCHAR
STARTCHAR U+0042
ENCODING 66
SWIDTH 444 0
DWIDTH 8 0
BBX 7 11 0 0
BITMAP
F8
84
82
82
84
F8
84
82
82
84
F8
ENDCHAR
STARTCHAR U+0043
ENCODING 67
SWIDTH 500 0
DWIDTH 9 0
BBX 8 11 0 0
BITMAP
3C
42
81
80
80
80
80
80
81
42
3C
ENDCHAR
STARTCHAR U+0044
ENCODING 68
SWIDTH 444 0
DWIDTH 8 0
BBX 7 11 0 0
BITMAP
F8
84
82
82
82
82
82
82
82
84
F8
ENDCHAR
STARTCHAR U+0045
ENCODING 69
SWIDTH 388 0
DWIDTH 7 0
BBX 6 11 0 0
BITMAP
FC
80
80
80
80
FC
80
80
80
80
FC
ENDCHAR
STARTCHAR U+0046
ENCODING 70
SWIDTH 388 0
DWIDTH 7 0
BBX 6 11 0 0
BITMAP
FC
80
80
80
80
FC
80
80
80
80
80
ENDCHAR
STARTCHAR U+0047
ENCODING 71
SWIDTH 500 0
DWIDTH 9 0
BBX 8 11 0 0
BITMAP
3C
42
81
80
80
8F
81
81
81
42
3C
ENDCHAR
STARTCHAR U+0048
ENCODING 72
SWIDTH 444 0
DWIDTH 8 0
BBX 7 11 0 0
BITMAP
82
82
82
82
82
FE
82
82
82
82
82
ENDCHAR
STARTCHAR U+0049
ENCODING 73
SWIDTH 222 0
DWIDTH 4 0
BBX 3 11 0 0
BITMAP
E0
40
40
40
40
40
40
40
40
40
E0
ENDCHAR
STARTCHAR U+004A
ENCODING 74
SWIDTH 388 0
DWIDTH 7 0
BBX 6 11 0 0
BITMAP
04
04
04
04
04
04
04
04
84
48
30
ENDCHAR
STARTCHAR U+004B
ENCODING 75
SWIDTH 444 0
DWIDTH 8 0
BBX 7 11 0 0
BITMAP
82
84
88
90
A0
C0
A0
90
88
84
82
ENDCHAR
STARTCHAR U+004C
ENCODING 76
SWIDTH 388 0
DWIDTH 7 0
BBX 6 11 0 0
BITMAP
80
80
80
80
80
80
80
80
80
80
FC
ENDCHAR
STARTCHAR U+004D
ENCODING 77
SWIDTH 555 0
DWIDTH 10 0
BBX 9 11 0 0
BITMAP
8080
C180
C180
A280
A280
A280
9480
9480
9480
8880
8880
ENDCHAR
STARTCHAR U+004E
ENCODING 78
SWIDTH 444 0
DWIDTH 8 0
BBX 7 11 0 0
BITMAP
82
C2
C2
A2
A2
92
8A
8A
86
86
82
ENDCHAR
STARTCHAR U+004F
ENCODING 79
SWIDTH 500 0
DWIDTH 9 0
BBX 8 11 0 0
BITMAP
3C
42
81
81
81
81
81
81
81
42
3C
ENDCHAR
STARTCHAR U+0050
ENCODING 80
SWIDTH 444 0
DWIDTH 8 0
BBX 7 11 0 0
BITMAP
F8
84
82
82
82
84
F8
80
80
80
80
ENDCHAR
STARTCHAR U+0051
ENCODING 81
SWIDTH 500 0
DWIDTH 9 0
BBX 8 11 0 0
BITMAP
3C
42
81
81
81
81
81
89
85
42
3D
ENDCHAR
STARTCHAR U+0052
ENCODING 82
SWIDTH 444 0
DWIDTH 8 0
BBX 7 11 0 0
BITMAP
F8
84
82
82
82
84
F8
90
88
84
82
ENDCHAR
STARTCHAR U+0053
ENCODING 83
SWIDTH 444 0
DWIDTH 8 0
BBX 7 11 0 0
BITMAP
38
44
82
80
40
38
04
02
82
44
38
ENDCHAR
STARTCHAR U+0054
ENCODING 84
SWIDTH 444 0
DWIDTH 8 0
BBX 7 11 0 0
BITMAP
FE
10
10
10
10
10
10
10
10
10
10
ENDCHAR
STARTCHAR U+0055
ENCODING 85
SWIDTH 500 0
DWIDTH 9 0
BBX 8 11 0 0
BITMAP
81
81
81
81
81
81
81
81
81
42
3C
ENDCHAR
STARTCHAR U+0056
ENCODING 86
SWIDTH 444 0
DWIDTH 8 0
BBX 7 11 0 0
BITMAP
82
82
82
44
44
44
28
28
28
10
10
ENDCHAR
STARTCHAR U+0057
ENCODING 87
SWIDTH 555 0
DWIDTH 10 0
BBX 9 11 0 0
BITMAP
8880
8880
8880
8880
5500
5500
5500
5500
2200
2200
2200
ENDCHAR
STARTCHAR U+0058
ENCODING 88
SWIDTH 444 0
DWIDTH 8 0
BBX 7 11 0 0
BITMAP
82
44
44
28
28
10
28
28
44
44
82
ENDCHAR
STARTCHAR U+0059
ENCODING 89
SWIDTH 444 0
DWIDTH 8 0
BBX 7 11 0 0
BITMAP
82
82
44
44
28
28
10
10
10
10
10
ENDCHAR
STARTCHAR U+005A
ENCODING 90
SWIDTH 388 0
DWIDTH 7 0
BBX 6 11 0 0
BITMAP
FC
08
08
10
10
20
20
40
40
80
FC
ENDCHAR
STARTCHAR U+005B
ENCODING 91
SWIDTH 222 0
DWIDTH 4 0
BBX 3 11 0 0
BITMAP
E0
80
80
80
80
80
80
80
80
80
E0
ENDCHAR
STARTCHAR U+005C
ENCODING 92
SWIDTH 333 0
DWIDTH 6 0
BBX 5 11 0 0
BITMAP
80
80
40
40
20
20
20
10
10
08
08
ENDCHAR
STARTCHAR U+005D
ENCODING 93
SWIDTH 222 0
DWIDTH 4 0
BBX 3 11 0 0
BITMAP
E0
20
20
20
20
20
20
20
20
20
E0
ENDCHAR
STARTCHAR U+005E
ENCODING 94
SWIDTH 333 0
DWIDTH 6 0
BBX 5 3 0 8
BITMAP
20
50
88
ENDCHAR
STARTCHAR U+005F
ENCODING 95
SWIDTH 444 0
DWIDTH 8 0
BBX 7 1 0 0
BITMAP
FE
ENDCHAR
STARTCHAR U+0060
ENCODING 96
SWIDTH 222 0
DWIDTH 4 0
BBX 3 3 0 8
BITMAP
80
40
20
ENDCHAR
STARTCHAR U+0061
ENCODING 97
SWIDTH 388 0
DWIDTH 7 0
BBX 6 8 0 0
BITMAP
78
84
04
3C
44
84
8C
74
ENDCHAR
STARTCHAR U+0062
ENCODING 98
SWIDTH 444 0
DWIDTH 8 0
BBX 7 11 0 0
BITMAP
80
80
80
B8
C4
82
82
82
82
C4
B8
ENDCHAR
STARTCHAR U+0063
ENCODING 99
SWIDTH 388 0
DWIDTH 7 0
BBX 6 8 0 0
BITMAP
38
44
80
80
80
80
44
38
ENDCHAR
STARTCHAR U+0064
ENCODING 100
SWIDTH 444 0
DWIDTH 8 0
BBX 7 11 0 0
BITMAP
02
02
02
3A
46
82
82
82
82
46
3A
ENDCHAR
STARTCHAR U+0065
ENCODING 101
SWIDTH 444 0
DWIDTH 8 0
BBX 7 8 0 0
BITMAP
38
44
82
FE
80
82
44
38
ENDCHAR
STARTCHAR U+0066
ENCODING 102
SWIDTH 333 0
DWIDTH 6 0
BBX 5 11 0 0
BITMAP
18
20
20
F8
20
20
20
20
20
20
20
ENDCHAR
STARTCHAR U+0067
ENCODING 103
SWIDTH 444 0
DWIDTH 8 0
BBX 7 10 0 -2
BITMAP
3A
46
82
82
82
46
3A
82
44
38
ENDCHAR
STARTCHAR U+0068
ENCODING 104
SWIDTH 388 0
DWIDTH 7 0
BBX 6 11 0 0
BITMAP
80
80
80
B8
C4
84
84
84
84
84
84
ENDCHAR
STARTCHAR U+0069
ENCODING 105
SWIDTH 222 0
DWIDTH 4 0
BBX 1 10 1 0
BITMAP
80
00
80
80
80
80
80
80
80
80
ENDCHAR
STARTCHAR U+006A
ENCODING 106
SWIDTH 333 0
DWIDTH 6 0
BBX 4 12 0 -2
BITMAP
10
00
10
10
10
10
10
10
10
10
90
60
ENDCHAR
STARTCHAR U+006B
ENCODING 107
SWIDTH 388 0
DWIDTH 7 0
BBX 6 11 0 0
BITMAP
80
80
80
84
88
90
E0
A0
90
88
84
ENDCHAR
STARTCHAR U+006C
ENCODING 108
SWIDTH 222 0
DWIDTH 4 0
BBX 1 11 1 0
BITMAP
80
80
80
80
80
80
80
80
80
80
80
ENDCHAR
STARTCHAR U+006D
ENCODING 109
SWIDTH 555 0
DWIDTH 10 0
BBX 9 8 0 0
BITMAP
B300
CC80
8880
8880
8880
8880
8880
8880
ENDCHAR
STARTCHAR U+006E
ENCODING 110
SWIDTH 388 0
DWIDTH 7 0
BBX 6 8 0 0
BITMAP
B8
C4
84
84
84
84
84
84
ENDCHAR
STARTCHAR U+006F
ENCODING 111
SWIDTH 444 0
DWIDTH 8 0
BBX 7 8 0 0
BITMAP
38
44
82
82
82
82
44
38
ENDCHAR
STARTCHAR U+0070
ENCODING 112
SWIDTH 444 0
DWIDTH 8 0
BBX 7 10 0 -2
BITMAP
B8
C4
82
82
82
82
C4
B8
80
80
ENDCHAR
STARTCHAR U+0071
ENCODING 113
SWIDTH 444 0
DWIDTH 8 0
BBX 7 10 0 -2
BITMAP
3A
46
82
82
82
82
46
3A
02
02
ENDCHAR
STARTCHAR U+0072
ENCODING 114
SWIDTH 333 0
DWIDTH 6 0
BBX 5 8 0 0
BITMAP
B0
C8
80
80
80
80
80
80
ENDCHAR
STARTCHAR U+0073
ENCODING 115
SWIDTH 388 0
DWIDTH 7 0
BBX 6 8 0 0
BITMAP
78
84
80
60
18
04
84
78
ENDCHAR
STARTCHAR U+0074
ENCODING 116
SWIDTH 333 0
DWIDTH 6 0
BBX 5 10 0 0
BITMAP
40
40
F8
40
40
40
40
40
48
30
ENDCHAR
STARTCHAR U+0075
ENCODING 117
SWIDTH 444 0
DWIDTH 8 0
BBX 7 8 0 0
BITMAP
82
82
82
82
82
82
46
3A
ENDCHAR
STARTCHAR U+0076
ENCODING 118
SWIDTH 444 0
DWIDTH 8 0
BBX 7 8 0 0
BITMAP
82
82
44
44
28
28
10
10
ENDCHAR
STARTCHAR U+0077
ENCODING 119
SWIDTH 555 0
DWIDTH 10 0
BBX 9 8 0 0
BITMAP
8880
8880
8880
5500
5500
5500
2200
2200
ENDCHAR
STARTCHAR U+0078
ENCODING 120
SWIDTH 444 0
DWIDTH 8 0
BBX 7 8 0 0
BITMAP
82
44
28
10
10
28
44
82
ENDCHAR
STARTCHAR U+0079
ENCODING 121
SWIDTH 444 0
DWIDTH 8 0
BBX 7 10 0 -2
BITMAP
82
82
44
44
28
28
10
10
20
C0
ENDCHAR
STARTCHAR U+007A
ENCODING 122
SWIDTH 388 0
DWIDTH 7 0
BBX 6 8 0 0
BITMAP
FC
04
08
10
20
40
80
FC
ENDCHAR
STARTCHAR U+007B
ENCODING 123
SWIDTH 277 0
DWIDTH 5 0
BBX 4 11 0 0
BITMAP
30
40
40
40
40
80
40
40
40
40
30
ENDCHAR
STARTCHAR U+007C
ENCODING 124
SWIDTH 222 0
DWIDTH 4 0
BBX 1 11 1 0
BITMAP
80
80
80
80
80
80
80
80
80
80
80
ENDCHAR
STARTCHAR U+007D
ENCODING 125
SWIDTH 277 0
DWIDTH 5 0
BBX 4 11 0 0
BITMAP
C0
20
20
20
20
10
20
20
20
20
C0
ENDCHAR
STARTCHAR U+007E
ENCODING 126
SWIDTH 444 0
DWIDTH 8 0
BBX 7 3 0 4
BITMAP
60
92
0C
ENDCHAR
ENDFONT
